<svg version="1.1" xmlns="http://www.w3.org/2000/svg" xmlns:xlink="http://www.w3.org/1999/xlink" x="0px" y="0px" viewBox="0 0 48 48" xml:space="preserve" width="48" height="48">
 <rect class="nucleo-frame" x="0" y="0" width="48" height="48" rx="26" ry="26" fill="#d5d6d6"></rect> 
<g class="nc-icon-wrapper" fill="#294360" transform="translate(9.600000000000001 9.600000000000001) scale(0.6)"><circle data-color="color-2" fill="#f18b2c" cx="33" cy="19" r="5"></circle> <circle data-color="color-2" fill="#f18b2c" cx="19" cy="9" r="5"></circle> <path fill="#294360" d="M43.012,34.26l-17.521,1.524c-1.622,0.141-3.249-0.216-4.662-1.024L16,32h11.268 C28.777,32,30,30.777,30,29.268v0c0-1.315-0.936-2.443-2.229-2.686l-10.117-1.897C15.223,24.229,12.755,24,10.282,24H2v14.479 l16.449,6.857c1.821,0.683,3.835,0.673,5.688,0.205L46,37v0C46,35.387,44.618,34.12,43.012,34.26z"></path></g></svg>